<?xml version="1.0" encoding="UTF-8"?>
<svg id="Camada_1" data-name="Camada 1" xmlns="http://www.w3.org/2000/svg" xmlns:xlink="http://www.w3.org/1999/xlink" viewBox="0 0 1919.89 459.52">
  <defs>
    <style>
      .cls-1, .cls-2 {
        fill: none;
      }

      .cls-2 {
        stroke: #4c5924;
        stroke-miterlimit: 10;
      }

      .cls-3 {
        fill: #7f8c5e;
      }

      .cls-4 {
        clip-path: url(#clippath);
      }
    </style>
    <clipPath id="clippath">
      <rect class="cls-1" x="0" y="1.46" width="1883.25" height="423.44"/>
    </clipPath>
  </defs>
  <rect class="cls-3" width="1919.89" height="459.52"/>
  <g class="cls-4">
    <g id="_Repetição_de_grade_" data-name="&amp;lt;Repetição de grade&amp;gt;">
      <g>
        <path class="cls-2" d="M787.76,213.62c70.73-9.71,101.8-35,101.8-61.93,0-50.29-163.99-23.15-158.68-37.31,3.69-9.41,39.81-12.28,58.39-11.98,21.8.42,57.77,6.56,92.93,14.08.82-19.36,1.63-38.72,2.45-58.09-35.98,7.87-116.1,16.74-180.29,24.4-54.78,6.62-92.8,21.11-92.8,45.91,0,46.39,163.53,21.84,167.09,34.01,2.65,9.68-30.45,16.71-66.35,14.29-23.15-1.5-69.67-8.91-101.97-16.11-.82,24.34-1.64,48.67-2.45,73.01,56.01-7.85,122.24-12.4,179.88-20.28Z"/>
        <path class="cls-2" d="M1250.63,172.61c56.51,93.53,16.56,55.36,0,153.68,59.17-5.43,118.35-9.13,177.52-10.15-13.45-88.25-47.25-49.15,0-153.68-59.17,1.02-118.35,4.72-177.52,10.15Z"/>
        <path class="cls-2" d="M263.68,236.65c1.78.14,3.2-.56,3.13-1.52-1.53-20.34-3.06-40.68-4.59-61.03-.09-1.17-2.25-2.1-4.26-1.85-.02,0-.04,0-.05,0-.8.1-1.44.4-1.76.8-12.75,16.46-40.19,26.15-72,21.85-43.97-5.85-79.62-36.35-79.62-64.87,0-19.04,15.82-32.4,39.37-37.47,2.48-.54,1.2-2.86-1.83-3.36-46.27-7.72-92.53-18.01-138.8-31.31-1.94-.56-3.39-.05-3.07,1.08C11.68,98.99,11.62,141.92.02,187.79c-.24.94,1.21,2.26,3.09,2.8,86.85,24.97,173.71,39.33,260.56,46.06Z"/>
        <path class="cls-2" d="M582.13,232.67c-2.67-15.71-5.33-31.43-8-47.15-18.01,3.44-42.91,6.52-70.42,8.03-54.97,3.09-99.53-1.68-99.53-7.61,0-5.97,44.56-10.84,99.53-13.93,15.35-.84,29.87-1.42,42.85-1.68v-19.3c-16.88,2.65-38.11,4.86-61.19,5.94-54.97,2.65-99.53-2.57-99.53-8.5,0-5.97,44.56-10.39,99.53-13.04,34.58-1.61,65.03-1.97,82.87-.51,1.63-11.4,3.26-22.8,4.89-34.21-94.3,7.75-188.6,10.72-282.91,5.06,12.26,38.31,12.26,82.55,0,132.72,97.3,5.84,194.6,2.5,291.9-5.81Z"/>
        <path class="cls-2" d="M1401.38,143.02c96.89-2.77,150.86-28.49,150.86-70.41,0-39.93-53.96-73.93-150.86-71.16-96.89,3.37-150.85,39.3-150.86,79.2,0,41.95,53.96,65.74,150.86,62.37ZM1401.02,17.66c15.39-.48,27.87,23.45,27.87,53.19,0,29.74-12.48,54.04-27.87,54.51-15.39.47-27.87-23.07-27.87-52.81,0-29.74,12.48-54.42,27.87-54.89Z"/>
        <path class="cls-2" d="M1161.82,84.9c-10.63,1.25-17.58.33-17.58-3.43,0-3.32,6.95-5.94,17.58-8.07,22.08-4.38,44.97-14.75,44.97-28.46,0-18.01-24.12-27.07-100.98-17.28-68.27,8.81-136.55,22.88-194.19,31.24,11.86,34.55,11.86,84.32,0,134.93,23.3-5.15,53.15-9.96,84.63-14.46,32.71-4.62,63.78-6.93,121.83-14.37,66.64-8.46,109.16-28.77,109.16-53.59,0-20.54-23.71-31.39-65.41-26.52ZM1063.7,56.69c12.67-1.72,17.99,4.44,17.99,12.4,0,7.08-5.32,13.09-17.99,14.81-13.08,1.78-17.17-2.95-17.17-10.03,0-7.96,4.09-15.39,17.17-17.17ZM1065.29,155.04c-11.73,1.59-21.23-10.91-21.23-27.96,0-17.05,9.51-32.19,21.23-33.78,11.73-1.59,21.23,10.98,21.23,28.03,0,17.05-9.51,32.13-21.23,33.72Z"/>
        <path class="cls-2" d="M1749.99,167.05c70.73,14.54,101.8,4.69,101.8-22.69,0-25.4-41-48.91-81.33-64.27-40.33-15.89-80-23.63-77.35-29.79,3.69-8.54,39.81-.76,58.39,6.04,21.8,7.69,57.77,26.97,92.93,49.63.82-19.01,1.63-38.02,2.45-57.03-35.98-8.27-116.11-29.46-180.29-37.31-54.78-7.24-92.8,1.91-92.8,26.55,0,22.75,40.88,35.21,82.21,46.7,41.33,11.02,83.1,21.08,84.88,28.25,2.65,10.57-30.45,6.49-66.35-5.24-23.15-7.82-69.67-25.58-101.97-37.71-.82,24.2-1.64,48.41-2.45,72.61,56.01.84,122.24,12.55,179.88,24.27Z"/>
        <path class="cls-2" d="M462,264.61c-39.13,1.41-78.27,1.74-117.4.71-69.59-2.31-82.84,20.23-91.37,52.63-1.89,8.28-5.21,17-17.51,15.83-11.36-1.11-13.73-10.37-14.68-18.91-4.26-33.66-17.04-58.34-86.63-69.71-40.71-7.05-81.42-16.09-122.13-27.45,12.78,46.51,9.47,112.84-11.36,150.45,43.98,12.74,87.97,22.75,131.95,30.41-8.9-9.37-15.06-27.5-15.06-47.16,0-27.09,11.7-46.84,26.12-44.46,14.43,2.39,26.12,26.01,26.12,53.11,0,10.36,0,29.12-9.22,42.69,39.95,6.08,79.9,10.3,119.86,12.94-9.22-18.91-6.15-38.39-6.15-44.48,0-27.09,11.7-48.2,26.12-47.44,14.43.77,26.12,23.14,26.12,50.23,0,19.66-6.17,36.4-15.06,43.81,53.88,2.5,107.76,2.27,161.64.05-20.83-42.73-24.14-109.79-11.36-153.24Z"/>
        <path class="cls-2" d="M742.83,341.49c-63.65,8.26-115.25,7.73-115.25.83,0-6.88,51.6-17.52,115.25-25.78,17.77-2.28,34.59-4.1,49.62-5.37v-22.35c-19.55,4.32-44.13,8.58-70.85,11.9-63.65,7.99-115.25,7.1-115.25.21,0-6.88,51.6-17.16,115.25-25.15,40.04-4.98,75.31-7.64,95.96-7.16,1.89-13.31,3.77-26.63,5.66-39.94-109.2,15.3-218.39,28.73-327.59,34.34,14.2,42.78,14.2,94.01,0,153.68,112.67-5.78,225.33-19.9,338-35.8-3.09-18.02-6.18-36.04-9.26-54.07-20.86,5.18-49.69,10.57-81.54,14.66Z"/>
        <path class="cls-2" d="M1071.23,188.3c-71.48,9.63-148.17,26.27-210.18,35.13,13.73,40.03,13.73,97.66,0,156.24,26.98-5.65,61.54-11.48,97.99-16.76,37.87-5.42,74.8-8.39,144.38-17.5,79.06-10.22,123.08-42.09,123.08-92.37,0-50.04-48.76-79.04-155.27-64.74ZM1039.78,322.76c-15.27,2.12-27.66-18.45-27.66-46,0-27.55,12.38-51.64,27.66-53.76,15.28-2.12,27.66,18.54,27.66,46.09,0,27.55-12.38,51.55-27.66,53.68Z"/>
        <path class="cls-2" d="M1521.88,163.23c14.2,43.49-56.81,92.66-71.01,152.65,54.11-.29,108.21,1.77,162.32,6.89-5.94-7.48-11.01-16.36-11.01-25.49,0-23.4,11.12-41.49,29.2-39.56,23.63,2.61,29.2,22.48,29.2,45.85,0,9.13-4.65,16.97-10.24,23.21,66.85,8.12,133.7,21.17,200.55,40.53-14.2-63.62-75.74-130.02-85.21-175.05-81.27-17.32-162.53-26.18-243.8-29.04ZM1628.3,244.1c-16.12-1.7-29.2-15.43-29.2-31.04,0-15.61,13.07-27.19,29.2-25.49,16.12,1.69,29.2,16.05,29.2,31.65,0,15.62-13.07,26.57-29.2,24.88Z"/>
      </g>
    </g>
  </g>
</svg>