<?xml version="1.0" encoding="UTF-8"?>
<svg id="Camada_1" data-name="Camada 1" xmlns="http://www.w3.org/2000/svg" xmlns:xlink="http://www.w3.org/1999/xlink" viewBox="0 0 213.08 51">
  <defs>
    <style>
      .cls-1 {
        fill: none;
      }

      .cls-2 {
        fill: #5b2671;
      }

      .cls-3 {
        fill: #66347c;
      }

      .cls-4 {
        clip-path: url(#clippath);
      }
    </style>
    <clipPath id="clippath">
      <rect class="cls-1" x="0" y=".16" width="209.01" height="47"/>
    </clipPath>
  </defs>
  <rect class="cls-3" width="213.08" height="51"/>
  <g class="cls-4">
    <g id="_Repetição_de_grade_" data-name="&amp;lt;Repetição de grade&amp;gt;">
      <g>
        <path class="cls-2" d="M87.43,23.7c7.85-1.07,11.3-3.88,11.3-6.87,0-5.58-18.2-2.58-17.61-4.15.41-1.04,4.42-1.36,6.48-1.33,2.42.05,6.41.73,10.31,1.57.09-2.15.18-4.3.27-6.45-3.99.87-12.89,1.85-20.01,2.7-6.08.73-10.3,2.34-10.3,5.09,0,5.15,18.15,2.43,18.54,3.78.29,1.07-3.38,1.85-7.36,1.58-2.57-.17-7.73-.99-11.32-1.79-.09,2.7-.18,5.4-.27,8.1,6.22-.87,13.57-1.37,19.96-2.24Z"/>
        <path class="cls-2" d="M138.8,19.17c6.27,10.38,1.84,6.15,0,17.06,6.57-.6,13.13-1.01,19.7-1.12-1.49-9.79-5.24-5.46,0-17.06-6.57.11-13.13.52-19.7,1.12Z"/>
        <path class="cls-2" d="M29.26,26.24c.2.02.35-.06.35-.17-.17-2.26-.34-4.52-.51-6.77,0-.13-.25-.23-.47-.2,0,0,0,0,0,0-.09.01-.16.04-.19.09-1.42,1.83-4.46,2.9-7.99,2.43-4.88-.65-8.84-4.03-8.84-7.2,0-2.11,1.75-3.6,4.37-4.16.27-.06.13-.32-.2-.37-5.13-.86-10.27-2-15.4-3.47-.21-.06-.38,0-.34.12C1.3,10.97,1.29,15.73,0,20.83c-.03.1.13.25.34.31,9.64,2.77,19.28,4.36,28.92,5.11Z"/>
        <path class="cls-2" d="M64.61,25.81c-.3-1.74-.59-3.49-.89-5.23-2,.38-4.76.72-7.82.89-6.1.34-11.05-.19-11.05-.85,0-.66,4.95-1.2,11.05-1.54,1.7-.09,3.32-.16,4.76-.19v-2.14c-1.87.29-4.23.54-6.79.66-6.1.29-11.05-.29-11.05-.95,0-.66,4.95-1.15,11.05-1.45,3.84-.18,7.22-.22,9.2-.05.18-1.27.36-2.53.54-3.8-10.47.86-20.93,1.18-31.4.56,1.36,4.25,1.36,9.16,0,14.73,10.8.65,21.6.28,32.4-.64Z"/>
        <path class="cls-2" d="M155.53,15.89c10.75-.31,16.74-3.16,16.74-7.81,0-4.43-5.99-8.21-16.74-7.9-10.75.37-16.74,4.36-16.74,8.79,0,4.66,5.99,7.3,16.74,6.93ZM155.49,1.98c1.71-.05,3.09,2.6,3.09,5.9,0,3.3-1.38,6-3.09,6.05-1.71.05-3.09-2.56-3.09-5.86,0-3.3,1.38-6.04,3.09-6.09Z"/>
        <path class="cls-2" d="M128.94,9.43c-1.18.14-1.95.04-1.95-.38,0-.37.77-.66,1.95-.89,2.45-.48,4.99-1.64,4.99-3.16,0-2-2.68-3-11.21-1.92-7.58.98-15.15,2.53-21.55,3.46,1.32,3.84,1.32,9.36,0,14.97,2.59-.57,5.9-1.1,9.39-1.6,3.63-.51,7.08-.77,13.52-1.59,7.4-.94,12.11-3.19,12.11-5.94,0-2.28-2.63-3.48-7.26-2.95ZM118.05,6.3c1.41-.19,2,.49,2,1.38,0,.79-.59,1.45-2,1.64-1.45.2-1.91-.33-1.91-1.11,0-.88.45-1.71,1.91-1.91ZM118.23,17.21c-1.3.18-2.36-1.21-2.36-3.1,0-1.89,1.05-3.57,2.36-3.75,1.3-.18,2.36,1.22,2.36,3.11,0,1.89-1.05,3.57-2.36,3.74Z"/>
        <path class="cls-2" d="M194.22,18.56c7.85,1.61,11.3.52,11.3-2.52,0-6.01-18.2-9.44-17.61-10.44.41-.95,4.42-.08,6.48.67,2.42.85,6.41,2.99,10.31,5.51.09-2.11.18-4.22.27-6.33-3.99-.92-12.89-3.27-20.01-4.14-6.08-.8-10.3.21-10.3,2.95,0,4.72,18.15,6.4,18.54,8.32.29,1.17-3.38.72-7.36-.58-2.57-.87-7.73-2.84-11.32-4.19-.09,2.69-.18,5.37-.27,8.06,6.22.09,13.57,1.39,19.96,2.69Z"/>
        <path class="cls-2" d="M51.28,29.35c-4.34.16-8.69.19-13.03.08-7.72-.26-9.19,2.25-10.14,5.84-.21.92-.58,1.89-1.94,1.76-1.26-.12-1.52-1.15-1.63-2.1-.47-3.74-1.89-6.47-9.61-7.74-4.52-.78-9.04-1.78-13.55-3.04,1.42,5.16,1.05,12.52-1.26,16.7,4.88,1.41,9.76,2.52,14.64,3.37-.99-1.04-1.67-3.05-1.67-5.23,0-3.01,1.3-5.2,2.9-4.93,1.6.27,2.9,2.89,2.9,5.89,0,1.15,0,3.23-1.02,4.74,4.43.67,8.87,1.14,13.3,1.44-1.02-2.1-.68-4.26-.68-4.94,0-3.01,1.3-5.35,2.9-5.26,1.6.09,2.9,2.57,2.9,5.57,0,2.18-.68,4.04-1.67,4.86,5.98.28,11.96.25,17.94,0-2.31-4.74-2.68-12.19-1.26-17.01Z"/>
        <path class="cls-2" d="M82.44,37.89c-7.06.91-12.79.85-12.79.09,0-.76,5.73-1.94,12.79-2.86,1.97-.25,3.84-.45,5.51-.59v-2.48c-2.17.48-4.9.95-7.86,1.32-7.06.88-12.79.78-12.79.02,0-.76,5.73-1.9,12.79-2.79,4.44-.55,8.36-.85,10.65-.79.21-1.48.42-2.95.63-4.43-12.12,1.69-24.24,3.18-36.36,3.8,1.58,4.75,1.58,10.43,0,17.06,12.5-.64,25.01-2.2,37.51-3.96-.34-2-.69-4-1.03-6-2.32.57-5.52,1.17-9.05,1.62Z"/>
        <path class="cls-2" d="M118.89,20.91c-7.93,1.07-16.44,2.91-23.33,3.89,1.52,4.44,1.52,10.84,0,17.34,2.99-.63,6.83-1.27,10.88-1.86,4.2-.6,8.3-.93,16.02-1.94,8.77-1.13,13.66-4.67,13.66-10.25,0-5.55-5.41-8.77-17.23-7.19ZM115.4,35.83c-1.7.23-3.07-2.05-3.07-5.11,0-3.06,1.37-5.73,3.07-5.97,1.7-.23,3.07,2.06,3.07,5.12,0,3.06-1.37,5.72-3.07,5.96Z"/>
        <path class="cls-2" d="M168.9,18.14c1.58,4.83-6.3,10.28-7.88,16.94,6-.03,12.01.2,18.01.77-.66-.83-1.22-1.82-1.22-2.83,0-2.6,1.23-4.61,3.24-4.39,2.62.29,3.24,2.49,3.24,5.09,0,1.01-.52,1.88-1.14,2.58,7.42.9,14.84,2.35,22.26,4.49-1.58-7.06-8.41-14.43-9.46-19.42-9.02-1.92-18.04-2.9-27.06-3.22ZM180.72,27.11c-1.79-.19-3.24-1.71-3.24-3.45,0-1.73,1.45-3.02,3.24-2.83,1.79.19,3.24,1.78,3.24,3.51,0,1.73-1.45,2.95-3.24,2.76Z"/>
      </g>
    </g>
  </g>
</svg>